<svg xmlns="http://www.w3.org/2000/svg" viewBox="0 0 353 542"><defs><style>.cls-1{fill:#527275;}.cls-2{fill:#fff;}.cls-3{opacity:0.04;}.cls-4{fill:#153e49;}.cls-5{fill:#e6e6e6;}.cls-6{opacity:0.22;}.cls-7{fill:#8cad81;}.cls-8{fill:#f7d77f;}.cls-9{fill:#e5c573;}</style></defs><title>logo</title><g id="object"><rect class="cls-1" x="0.44" y="61.14" width="351.95" height="480.69" rx="21.37" ry="21.37"/><rect class="cls-2" x="23.49" y="99.06" width="305.85" height="417.73" rx="5.62" ry="5.62"/><path class="cls-3" d="M335.35,541l-313.54.31c-5.09,1.07-19.35-2.84-21.37-18.49L1.66,83.2Z"/><path class="cls-4" d="M113.58,241.15H41.81V169.37h71.78Zm-69.2-2.57H111V171.94H44.38Z"/><path class="cls-4" d="M113.58,349.53H41.81V277.76h71.78ZM44.38,347H111V280.33H44.38Z"/><path class="cls-4" d="M113.58,457.92H41.81V386.14h71.78Zm-69.2-2.57H111V388.71H44.38Z"/><rect class="cls-5" x="151.77" y="175.27" width="147.85" height="7.36"/><rect class="cls-5" x="151.77" y="197.9" width="147.85" height="7.36"/><rect class="cls-5" x="151.77" y="220.52" width="147.85" height="7.36"/><rect class="cls-5" x="151.77" y="286.05" width="147.85" height="7.36"/><rect class="cls-5" x="151.77" y="308.68" width="147.85" height="7.36"/><rect class="cls-5" x="151.77" y="331.3" width="147.85" height="7.36"/><rect class="cls-5" x="151.77" y="390.13" width="147.85" height="7.36"/><rect class="cls-5" x="151.77" y="412.76" width="147.85" height="7.36"/><rect class="cls-5" x="151.77" y="435.39" width="147.85" height="7.36"/><polygon class="cls-6" points="125.12 160.56 73.92 198.21 60.15 184.23 46.98 193.03 73.35 213.81 133.93 162.96 125.12 160.56"/><polygon class="cls-7" points="49.66 189.72 58.93 183.53 72.76 197.56 124.61 159.43 128.51 160.49 72.37 207.62 49.66 189.72"/><path class="cls-7" d="M72.39,208.6l-24-18.92L59,182.54l13.81,14,51.62-38,5.66,1.54ZM51,189.77l21.4,16.86,54.55-45.79-2.14-.58-52.09,38.3L58.83,184.51Z"/><polygon class="cls-6" points="130.35 282.28 79.15 319.93 65.38 305.95 52.21 314.75 78.58 335.53 139.16 284.68 130.35 282.28"/><polygon class="cls-7" points="54.89 311.44 64.16 305.24 77.99 319.28 129.84 281.15 133.74 282.21 77.61 329.33 54.89 311.44"/><path class="cls-7" d="M77.62,330.31l-24-18.92,10.66-7.13,13.81,14,51.62-38,5.66,1.54ZM56.19,311.49l21.4,16.86,54.55-45.79L130,282l-52.09,38.3L64.06,306.22Z"/><polygon class="cls-6" points="130.35 382.14 79.15 419.79 65.38 405.8 52.21 414.61 78.58 435.39 139.16 384.53 130.35 382.14"/><polygon class="cls-7" points="54.89 411.3 64.16 405.1 77.99 419.14 129.84 381.01 133.74 382.07 77.61 429.19 54.89 411.3"/><path class="cls-7" d="M77.62,430.17l-24-18.92,10.66-7.13,13.81,14,51.62-38,5.66,1.54ZM56.19,411.35l21.4,16.86,54.55-45.79-2.14-.58-52.09,38.3L64.06,406.08Z"/><path class="cls-8" d="M273.56,49.2H221.25V41.73A41.3,41.3,0,0,0,179.95.43h-.83a41.3,41.3,0,0,0-41.3,41.3V49.2H85.51a4.9,4.9,0,0,0-4.9,4.9v52.78a4.9,4.9,0,0,0,4.9,4.9H273.56a4.9,4.9,0,0,0,4.9-4.9V54.1A4.9,4.9,0,0,0,273.56,49.2Zm-94-4.91a13.8,13.8,0,1,1,13.8-13.8A13.8,13.8,0,0,1,179.53,44.29Z"/><rect class="cls-9" x="80.61" y="94.92" width="197.85" height="8.28"/><path class="cls-9" d="M277.55,109H81.7a1.1,1.1,0,0,1-1.1-1.1v-2.55H278.45v2.74A.9.9,0,0,1,277.55,109Z"/></g></svg>